<svg width="501" height="565" viewBox="0 0 501 565" fill="none" xmlns="http://www.w3.org/2000/svg">
    <!-- Ground, Part 1 -->
    <ellipse id="ground" class="part1" cx="250.5" cy="536" rx="250.5" ry="29" fill="black" fill-opacity="0.06"/>
    
    <!-- Vertical Post of Scaffold, Part 2 -->
    <path id="vertical-post" class="part2" fill-rule="evenodd" clip-rule="evenodd" d="M85 1C85 0.447715 85.4477 0 86 0H404C404.552 0 405 0.447715 405 1V15C405 15.5523 404.552 16 404 16H199.522C199.257 16 199.002 16.1054 198.815 16.2929L101.293 113.815C101.105 114.002 101 114.257 101 114.522V530C101 530.552 100.552 531 100 531H86C85.4477 531 85 530.552 85 530V1ZM101 94.7229C101 95.6138 102.077 96.0599 102.707 95.43L180.43 17.7071C181.06 17.0771 180.614 16 179.723 16H102C101.448 16 101 16.4477 101 17V94.7229Z" fill="black"/>

    <!-- Horizontal Beam of Scaffold, Part 3 -->
    <path id="horizontal-beam" class="part3" d="M85 1H404V15H85V1Z" fill="black"/>
    
    <!-- Small Connecting Piece, Part 4 -->
    <path id="connecting-piece" class="part4" d="M200 0H210V15H200V0Z" fill="black"/>
    
    <!-- Body, Part 5 -->
    <path id="body" class="part5" fill-rule="evenodd" clip-rule="evenodd" d="M365 385.679L365 286H362L362 388H362.134C361.759 390.439 363.447 394.38 366.612 397.949C370.684 402.54 375.66 404.777 377.726 402.945C379.792 401.112 378.166 395.905 374.093 391.314C371.033 387.863 367.462 385.743 365 385.679ZM366.554 389.143C365.811 388.809 365.345 388.71 365.079 388.685C365.072 388.952 365.115 389.427 365.357 390.204C365.861 391.818 367.035 393.905 368.856 395.958C370.678 398.012 372.61 399.426 374.151 400.12C374.894 400.453 375.361 400.553 375.626 400.577C375.634 400.311 375.591 399.835 375.348 399.058C374.844 397.445 373.67 395.358 371.849 393.304C370.028 391.251 368.096 389.836 366.554 389.143Z" fill="black"/>

    <!-- Legs, Part 6 -->
    <path id="legs" class="part6" d="M361.5 168V172M361.659 287C369.486 287 375.743 280.491 375.434 272.67L371.766 179.737C371.573 174.857 367.561 171 362.677 171C357.87 171 353.893 174.74 353.599 179.538L347.898 272.369C347.411 280.3 353.712 287 361.659 287Z" stroke="black" stroke-width="3"/>

    <!-- Arms, Part 7 -->
    <path id="arms" class="part7" d="M359.5 195L359.464 295.747M358.256 292C360.154 293.832 359.874 299.483 357.012 302.995C354.15 306.507 350.291 307.868 348.393 306.036C346.495 304.204 347.276 299.871 350.138 296.359C353 292.847 356.358 290.168 358.256 292Z" stroke="black" stroke-width="3" stroke-linecap="round"/>

    <!-- Head, Part 8 -->
    <path id="head" class="part8" fill-rule="evenodd" clip-rule="evenodd" d="M391.77 100.858C370.429 97.947 350.768 112.888 347.858 134.23L350.83 134.635C353.517 114.935 371.665 101.143 391.365 103.83L391.77 100.858Z" fill="black"/>
</svg>
